HIERARCHY
ROOT Hips
{
	OFFSET 0.00000 0.00000 0.00000
	CHANNELS 6 Xposition Yposition Zposition Yrotation Zrotation Xrotation 
	JOINT Lumbar
	{
		OFFSET 0 0 0
		CHANNELS 3 Zrotation Xrotation Yrotation
		JOINT Neck
		{
			OFFSET 0.00 0.2701 0.00
			CHANNELS 3 Zrotation Xrotation Yrotation
			End Site
			{
				OFFSET 0.00 0.1379 0.00
			}
		}
		JOINT RightShoulder
		{
			OFFSET 0.0119 0.2289 0.1181
			CHANNELS 3 Zrotation Xrotation Yrotation
			JOINT RightElbow
			{
				OFFSET 0.00 -0.1475 0.00
				CHANNELS 2 Zrotation Yrotation
				JOINT RightWrist
				{
					OFFSET 0.00 -0.1605 0.00
					CHANNELS 2 Zrotation Xrotation
					End Site
					{
						OFFSET 0.0040 -0.1068 0.0006
					}
				}
			}
		}
		JOINT LeftShoulder
		{
			OFFSET 0.0119 0.2289 -0.1181
			CHANNELS 3 Zrotation Xrotation Yrotation
			JOINT LeftElbow
			{
				OFFSET 0.00 -0.1475 0.00
				CHANNELS 2 Zrotation Yrotation
				JOINT LeftWrist
				{
					OFFSET 0.00 -0.1605 0.00
					CHANNELS 2 Zrotation Xrotation
					End Site
					{
						OFFSET 0.0040 -0.1068 -0.0006
					}
				}
			}
		}
	}
	JOINT RightHip
	{
		OFFSET 0.0316 -0.0424 0.0458
		CHANNELS 3 Zrotation Xrotation Yrotation
		JOINT RightKnee
		{
			OFFSET 0.00 -0.2438 0.00
			CHANNELS 1 Zrotation
			JOINT RightAnkle
			{
				OFFSET 0.00 -0.2449 0.00
				CHANNELS 3 Zrotation Xrotation Yrotation
				End Site
				{
					OFFSET 0.1237 -0.0542 0.0051
				}
			}
		}
	}
	JOINT LeftHip
	{
		OFFSET 0.0316 -0.0424 -0.0458
		CHANNELS 3 Zrotation Xrotation Yrotation
		JOINT LeftKnee
		{
			OFFSET 0.00 -0.2438 0.00
			CHANNELS 1 Zrotation
			JOINT LeftAnkle
			{
				OFFSET 0.00 -0.2449 0.00
				CHANNELS 3 Zrotation Xrotation Yrotation
				End Site
				{
					OFFSET 0.1237 -0.0542 -0.0051
				}
			}
		}
	}
}
MOTION
Frames: 29
Frame Time: 0.02
-0.67278 -0.45929 -0.52663 216.64733 1.37951 45.79313 18.80817 5.57521 -32.03305 -23.72684 -29.96591 -0.83079 -46.68367 -45.14772 -52.93945 62.87323 79.86356 -23.99721 -3.41903 39.11119 14.27196 -45.2979 65.04236 -118.14517 -21.30992 10.8574 58.81154 7.69247 -35.01112 -122.48471 -7.44798 -4.08902 -2.6987 101.90344 19.59817 8.2326 -121.21217 -10.20536 -0.99986 0.1061
-0.67774 -0.47137 -0.52917 218.35228 3.04626 44.43203 19.30597 4.1392 -33.02633 -24.65373 -31.7793 -0.83079 -47.97469 -41.02651 -55.61337 64.96095 79.57411 -21.77851 -3.26705 39.46534 10.73368 -46.11072 63.19395 -120.63414 -22.61726 11.06776 61.87087 8.96512 -36.24672 -122.83281 -6.21641 -2.40637 -0.16931 104.14381 19.6087 6.28201 -121.74751 -10.71426 -1.12997 0.04623
-0.68298 -0.48322 -0.53145 220.26003 4.70291 42.64226 19.68432 2.83717 -34.07266 -25.74295 -33.07616 -0.83079 -47.69847 -36.63279 -57.99783 66.1545 79.73898 -18.78868 -3.17132 39.87143 7.00075 -47.08271 61.15084 -122.97764 -24.36507 11.21998 65.32651 10.19301 -37.28349 -122.99314 -4.90517 -0.0388 3.1213 106.80725 19.58474 4.17579 -122.26996 -11.27057 -1.23926 -7e-05
-0.68802 -0.49505 -0.53381 222.03538 6.34621 41.10353 20.09641 1.44829 -35.04078 -26.7904 -34.50849 -0.83079 -48.19303 -32.43238 -60.45123 67.71907 79.71102 -16.20992 -3.06314 40.22126 3.41786 -48.02525 59.23382 -124.61099 -25.52828 11.4413 68.52733 11.40552 -38.37937 -123.23639 -3.79616 2.11419 5.99573 109.22151 19.57345 2.18776 -122.78548 -11.80016 -1.35555 -0.0514
-0.69343 -0.50747 -0.53634 223.98359 8.06656 39.3211 20.59839 0.15958 -36.2404 -27.71002 -36.35202 -0.83079 -48.42238 -27.92429 -63.16634 69.43425 79.67434 -13.39572 -2.90701 40.72355 -0.44005 -48.80337 57.13231 -129.37094 -28.24582 11.5023 72.03602 12.76322 -39.59345 -123.51429 -2.00053 3.88585 9.17096 111.89046 19.57248 -0.01338 -123.36271 -12.3521 -1.48059 -0.10676
-0.69811 -0.51858 -0.53845 225.6172 9.62402 37.94659 20.88149 -1.29692 -36.96479 -28.93046 -37.22133 -0.83079 -48.83335 -23.99287 -65.27695 70.62157 79.74304 -10.87505 -2.86022 40.91076 -3.7619 -49.94813 55.38928 -127.77873 -27.91155 11.86125 75.00026 13.81046 -40.51941 -123.66696 -1.59749 6.58198 11.89681 114.12172 19.54337 -1.80118 -123.80507 -12.86787 -1.58296 -0.15074
-0.70079 -0.52616 -0.53948 226.35205 10.72649 37.80639 20.61571 -3.31592 -36.42109 -30.95513 -35.50365 -0.83079 -50.19736 -21.78587 -65.6804 70.58536 80.01337 -9.4279 -3.11531 40.26674 -5.60069 -52.15595 54.54979 -106.9628 -18.35457 13.24063 76.36803 14.00563 -40.69765 -123.50759 -5.22549 11.93978 13.22036 115.06849 19.43651 -2.42913 -123.88138 -13.28076 -1.62923 -0.16723
-0.70269 -0.5324 -0.5401 226.75992 11.66557 38.09127 20.12943 -5.49531 -35.38876 -33.27252 -32.82937 -0.83079 -51.78912 -20.1614 -65.50129 70.0463 80.36218 -8.28846 -3.47542 39.29249 -6.88339 -54.70929 54.1019 -80.0618 -5.83296 14.8898 77.17572 13.89159 -40.59478 -123.22707 -10.22875 18.15422 14.06076 115.55444 19.30409 -2.63124 -123.82051 -13.6541 -1.65337 -0.17273
-0.70488 -0.53922 -0.5409 227.3039 12.68548 38.18128 19.72593 -7.55751 -34.54058 -35.44768 -30.60802 -0.83079 -53.23532 -18.22761 -65.66367 69.72697 80.65554 -6.95546 -3.7771 38.43467 -8.38976 -57.04457 53.56817 -57.09503 4.87 16.29132 78.23693 13.92374 -40.62319 -123.00662 -14.49104 23.79268 15.10546 116.23006 19.18943 -3.01294 -123.81963 -14.03992 -1.68695 -0.18299
-0.70738 -0.54618 -0.5417 227.90581 13.68137 38.26587 19.38913 -9.803 -33.84664 -37.67188 -28.28825 -0.83079 -54.8035 -16.46356 -65.50644 69.41208 81.05384 -5.81625 -4.12451 37.72226 -10.02574 -59.64345 52.65021 -29.26011 17.51721 18.20791 79.31138 13.93074 -40.62995 -122.75986 -19.23211 30.23594 16.24012 116.99933 19.04854 -3.45608 -123.8294 -14.45043 -1.72239 -0.19376
-0.70904 -0.55252 -0.54242 228.3091 14.68351 38.46512 18.86601 -11.70544 -32.72428 -39.85579 -25.95739 -0.83079 -56.19276 -14.49872 -65.8623 68.98205 81.24019 -4.36447 -4.40279 36.62612 -11.25716 -61.77298 52.61337 -10.03206 26.86282 19.13015 80.22603 13.91675 -40.61716 -122.54031 -23.31369 35.20651 17.06412 117.46448 18.95546 -3.67188 -123.78324 -14.79971 -1.74895 -0.20103
-0.70853 -0.55747 -0.54291 228.22262 15.78635 38.90668 17.8543 -12.63077 -30.45604 -41.90383 -23.79508 -0.83079 -57.03458 -11.74685 -67.9355 68.34496 80.87137 -1.9082 -4.44669 34.56601 -11.50491 -62.52251 55.04199 -16.83851 26.03374 17.12263 80.7832 13.92531 -40.62488 -122.43538 -25.14952 35.81699 17.13217 117.14867 19.01125 -3.32946 -123.62747 -14.98737 -1.75692 -0.20164
-0.70719 -0.56183 -0.54333 227.95055 16.89287 39.4455 16.6691 -13.20399 -27.78884 -43.89211 -21.66374 -0.83079 -57.69507 -8.79119 -70.51886 67.61618 80.27696 0.85735 -4.41991 32.12898 -11.36401 -62.78673 58.32048 -32.37533 21.84094 14.12729 81.2064 13.92272 -40.62259 -122.36106 -26.28973 34.92712 16.90317 116.55051 19.11422 -2.77843 -123.41834 -15.11486 -1.75673 -0.19912
-0.70623 -0.56645 -0.54383 227.77628 17.96947 39.92259 15.58159 -13.93322 -25.35782 -45.87541 -19.54377 -0.83079 -58.44624 -5.98916 -72.76425 66.94174 79.74845 3.43378 -4.4375 29.85331 -11.40196 -63.27204 61.1274 -43.4007 19.41214 11.66196 81.72443 13.92233 -40.6222 -122.2671 -27.80829 34.77679 16.81742 116.1149 19.18886 -2.34504 -123.226 -15.27119 -1.76008 -0.19789
-0.70522 -0.57108 -0.54412 227.53357 19.16034 40.48857 14.40439 -14.68588 -22.67728 -48.0026 -17.28275 -0.83079 -59.17326 -2.94912 -75.42995 66.19538 79.36911 6.20388 -4.40918 27.60428 -11.41197 -63.76763 64.30999 -56.4962 16.10521 8.86409 82.08164 13.92333 -40.62312 -122.19288 -29.11748 34.41683 16.68172 115.51927 19.29179 -1.80121 -123.05935 -15.42017 -1.76339 -0.19684
-0.70415 -0.57555 -0.54483 227.39398 20.11533 40.88658 13.37864 -15.30284 -20.42912 -49.8147 -15.33527 -0.83079 -59.89993 -0.34957 -77.35803 65.58411 78.63506 8.64933 -4.45568 25.21931 -11.39418 -64.12157 66.90454 -67.44956 13.77453 6.52021 82.74701 13.92269 -40.62254 -122.08653 -30.67291 34.1214 16.58411 115.19546 19.34717 -1.44249 -122.82958 -15.57029 -1.76511 -0.1948
-0.70306 -0.57978 -0.54677 227.58117 20.42758 40.80034 12.78791 -15.64093 -19.46615 -50.74554 -14.25374 -0.83079 -60.71321 0.99104 -77.04851 65.36911 76.885 10.10976 -4.74825 22.51366 -11.40478 -64.20461 67.68594 -70.23463 15.08007 5.6752 84.31384 13.92289 -40.62272 -121.88408 -33.12756 34.40456 16.67911 115.69364 19.26175 -1.65457 -122.42869 -15.74175 -1.76483 -0.19097
-0.70196 -0.58385 -0.54912 227.87986 20.50232 40.53978 12.3603 -15.85209 -18.95577 -51.36388 -13.4908 -0.83079 -61.52381 1.88241 -75.99555 65.29595 74.80297 11.23588 -5.11392 19.6943 -11.40171 -64.1597 67.84129 -70.61463 17.4469 5.31903 86.1922 13.92291 -40.62274 -121.64897 -35.8364 34.79378 16.82229 116.47508 19.12703 -2.05992 -121.96888 -15.91592 -1.76325 -0.18627
-0.7009 -0.58794 -0.55123 228.13257 20.67921 40.35369 11.87745 -16.11412 -18.24479 -52.14172 -12.58089 -0.83079 -62.30574 2.97816 -75.33651 65.15971 72.932 12.52595 -5.43102 16.95147 -11.40114 -64.17072 68.26848 -72.20381 19.23647 4.73556 87.92248 13.92284 -40.62268 -121.42921 -38.39174 35.10827 16.93606 117.12999 19.01311 -2.37424 -121.54295 -16.08689 -1.7621 -0.18192
-0.69965 -0.59226 -0.55355 228.3627 20.87671 40.18803 11.31353 -16.39243 -17.49802 -52.84707 -11.67775 -0.83079 -63.20582 4.08155 -74.46081 65.0132 70.79695 13.77904 -5.81038 14.0845 -11.40242 -64.17475 68.77701 -73.60506 21.31333 4.14007 89.6862 13.92289 -40.62272 -121.20779 -41.09044 35.4832 17.0708 117.77319 18.90579 -2.6976 -121.08416 -16.26435 -1.76134 -0.17764
-0.69881 -0.59604 -0.55553 228.66389 20.97971 39.94124 10.9534 -16.61166 -16.93868 -53.62589 -10.83956 -0.83079 -63.86384 5.05748 -73.85002 64.92418 69.13868 15.0218 -6.0785 11.46138 -11.40163 -64.16878 68.95891 -74.71127 23.08493 3.69785 91.44229 13.92287 -40.62271 -120.98233 -43.55175 35.77658 17.17736 118.50209 18.77468 -3.04691 -120.68167 -16.42936 -1.75957 -0.17307
-0.69912 -0.59841 -0.55653 229.17888 20.83683 39.4756 11.17104 -16.6959 -16.78818 -54.71752 -10.07308 -0.83079 -63.83407 5.81029 -74.17935 64.95071 68.85815 16.35045 -6.01994 9.47952 -11.40188 -64.17217 68.36476 -75.57722 23.78581 3.57014 93.22389 13.92287 -40.6227 -120.74854 -45.36633 35.82707 17.19536 119.48578 18.56979 -3.45551 -120.43999 -16.56264 -1.75528 -0.16784
-0.69983 -0.60023 -0.55717 229.75503 20.61407 38.94031 11.57983 -16.72694 -16.8126 -55.88723 -9.36675 -0.83079 -63.56515 6.44574 -74.79393 65.03229 69.07462 17.67254 -5.84748 7.76034 -11.40191 -64.17127 67.46433 -76.18807 24.1537 3.58293 94.96726 13.92287 -40.62271 -120.51284 -46.92414 35.79776 17.18471 120.53268 18.34592 -3.87815 -120.25897 -16.68297 -1.75006 -0.16237
-0.70034 -0.60227 -0.55795 230.27358 20.45745 38.46152 11.86462 -16.78654 -16.75739 -57.00033 -8.65194 -0.83079 -63.42016 7.12167 -75.25725 65.09483 69.07675 18.97485 -5.72865 5.96184 -11.40182 -64.17102 66.71762 -76.88214 24.66956 3.52894 96.64528 13.92287 -40.62271 -120.28098 -48.55527 35.80701 17.18806 121.49272 18.14406 -4.27255 -120.05647 -16.80737 -1.74534 -0.15708
-0.70094 -0.60444 -0.55882 230.91802 20.17081 37.87377 12.3074 -16.82475 -16.71735 -58.19441 -7.8675 -0.83079 -63.2118 7.83668 -75.7842 65.13715 69.01499 20.36215 -5.60472 3.98908 -11.40188 -64.17145 65.88808 -77.63804 25.23371 3.50287 98.67345 13.92287 -40.62271 -120.0346 -50.37456 35.80922 17.18875 122.70132 17.88512 -4.76575 -119.8263 -16.93955 -1.74026 -0.15146
-0.70145 -0.6062 -0.55941 231.31799 20.1338 37.49625 12.46987 -16.89435 -16.68257 -59.23904 -7.23968 -0.83079 -63.07719 8.44778 -76.25853 65.23267 69.21306 21.5747 -5.46309 2.44435 -11.40186 -64.1712 65.16663 -78.23218 25.6058 3.44687 99.97158 13.92287 -40.62271 -119.8195 -51.74199 35.80609 17.18759 123.41182 17.73977 -5.05411 -119.66879 -17.05235 -1.73571 -0.14649
-0.70163 -0.60699 -0.55932 230.98708 20.8528 37.73813 11.76352 -17.08413 -16.60813 -59.88287 -7.0152 -0.83079 -63.21795 8.80618 -76.49792 65.46207 69.96918 22.31098 -5.30354 2.00876 -11.40185 -64.17125 64.81765 -78.46273 25.51989 3.26365 99.15325 13.92287 -40.62271 -119.68182 -51.88617 35.80828 17.18839 122.65829 17.92539 -4.77239 -119.69885 -17.11541 -1.73284 -0.14343
-0.70171 -0.60739 -0.55896 230.41466 21.8185 38.19083 10.77636 -17.3044 -16.5329 -60.36989 -6.947 -0.83079 -63.43883 9.06508 -76.6812 65.7421 70.97648 22.87198 -5.12958 1.99685 -11.40184 -64.17124 64.591 -78.54651 25.24896 3.04514 97.61914 13.92287 -40.62271 -119.57738 -51.58962 35.80737 17.18808 121.41289 18.22387 -4.28373 -119.79989 -17.15931 -1.73053 -0.14104
-0.70181 -0.60796 -0.55871 229.97958 22.64111 38.5335 9.94886 -17.49769 -16.46315 -60.90933 -6.81556 -0.83079 -63.6143 9.36845 -76.90778 65.99823 71.89772 23.51233 -4.95932 1.79746 -11.40183 -64.17118 64.31235 -78.69518 25.0637 2.84691 96.485 13.92287 -40.62271 -119.46438 -51.51982 35.80717 17.18802 120.44009 18.46261 -3.88897 -119.86764 -17.21156 -1.72796 -0.13834
